<?xml version="1.0" standalone="no"?>
<!DOCTYPE svg PUBLIC "-//W3C//DTD SVG 20010904//EN"
    "http://www.w3.org/TR/2001/REC-SVG-20010904/DTD/svg10.dtd">
<svg version="1.0" xmlns="http://www.w3.org/2000/svg"
     width="96.000000pt" height="96.000000pt" viewBox="0 0 96.000000 96.000000"
     preserveAspectRatio="xMidYMid meet">
  <metadata>
    Created by potrace 1.14, written by Peter Selinger 2001-2017
  </metadata>
  <g transform="translate(0.000000,96.000000) scale(0.100000,-0.100000)"
     fill="#000000" stroke="none">
    <path d="M0 480 l0 -380 480 0 480 0 0 380 0 380 -480 0 -480 0 0 -380z m512
280 c19 0 20 -2 6 -17 -9 -10 -14 -22 -12 -28 2 -5 -9 -10 -25 -11 -23 -1 -27
3 -24 18 3 10 0 18 -6 18 -6 0 -11 3 -11 8 0 10 44 29 48 20 2 -5 13 -8 24 -8z
m-129 -40 c19 -1 20 -2 5 -11 -9 -5 -15 -15 -12 -23 3 -9 -5 -13 -25 -13 -17
0 -28 4 -25 9 3 5 0 15 -6 23 -10 12 -9 15 3 15 8 0 18 8 22 18 8 16 8 16 12
0 3 -10 14 -18 26 -18z m260 0 c19 -1 20 -2 5 -11 -9 -5 -15 -15 -12 -23 3 -9
-5 -13 -25 -13 -17 0 -28 4 -25 9 3 5 0 15 -6 23 -10 12 -9 15 3 15 8 0 18 8
22 18 8 16 8 16 12 0 3 -10 14 -18 26 -18z m94 -90 c13 0 13 -3 3 -15 -7 -8
-10 -22 -6 -30 4 -12 2 -13 -13 -6 -12 7 -22 6 -29 -1 -9 -9 -12 -7 -12 8 0
11 -5 25 -12 32 -9 9 -7 12 10 12 14 0 22 6 22 18 1 16 1 16 11 0 5 -10 17
-18 26 -18z m-467 10 c0 -5 7 -10 15 -10 8 0 15 -4 15 -10 0 -5 -5 -10 -11
-10 -6 0 -8 -8 -5 -17 5 -14 0 -18 -24 -18 -24 0 -29 4 -24 18 3 9 1 17 -5 17
-6 0 -11 5 -11 10 0 6 7 10 15 10 8 0 15 5 15 10 0 6 5 10 10 10 6 0 10 -4 10
-10z m-15 -140 c10 0 11 -5 2 -22 -14 -31 -50 -32 -64 -2 -9 19 -8 24 3 24 8
0 17 7 21 16 5 15 7 15 15 0 5 -9 15 -16 23 -16z m523 0 c16 -1 16 -1 0 -11
-9 -5 -15 -15 -12 -23 3 -9 -5 -13 -25 -13 -17 0 -28 4 -25 9 3 5 0 15 -6 23
-10 12 -9 15 3 15 8 0 18 8 22 18 6 16 7 16 16 0 6 -10 18 -18 27 -18z m-488
-130 c10 0 10 -3 0 -15 -6 -8 -9 -18 -6 -23 3 -5 -8 -9 -24 -9 -16 0 -27 4
-24 9 3 5 0 15 -6 23 -10 12 -9 15 4 15 9 0 16 8 16 18 1 16 1 16 14 0 7 -10
19 -18 26 -18z m448 0 c7 0 7 -7 -1 -22 -13 -29 -57 -34 -57 -7 0 10 -6 19
-12 20 -7 0 -3 4 10 9 12 5 22 15 22 22 1 8 5 7 14 -4 7 -10 18 -18 24 -18z
m-355 -90 c16 0 18 -3 9 -12 -7 -7 -12 -21 -12 -32 0 -15 -3 -17 -12 -8 -7 7
-17 8 -29 1 -15 -7 -17 -6 -13 6 4 8 1 22 -6 30 -10 12 -9 15 4 15 9 0 20 8
24 18 6 16 7 16 10 0 2 -11 12 -18 25 -18z m260 0 c19 -1 20 -2 7 -13 -9 -7
-14 -21 -12 -32 3 -16 1 -17 -9 -8 -9 9 -17 9 -32 1 -17 -9 -19 -8 -13 7 3 10
1 24 -5 31 -9 11 -8 14 4 14 8 0 18 8 22 18 8 16 8 16 12 0 3 -10 14 -18 26
-18z m-130 -30 c16 0 18 -3 9 -12 -7 -7 -12 -19 -12 -27 0 -10 -9 -16 -25 -16
-17 0 -25 6 -25 18 0 9 -4 17 -10 17 -5 0 -10 3 -10 8 0 10 44 29 48 20 2 -5
13 -8 25 -8z"/>
  </g>
</svg>

